<svg width="25" height="25" viewBox="0 0 25 25" fill="none" xmlns="http://www.w3.org/2000/svg">
<path d="M22.6562 6.2085C21.9092 6.53076 21.0962 6.7627 20.2588 6.85303C21.1282 6.33652 21.7793 5.52051 22.0898 4.55811C21.274 5.04343 20.3803 5.38375 19.4482 5.56397C19.0587 5.14753 18.5876 4.81577 18.0642 4.58938C17.5409 4.36298 16.9765 4.24679 16.4062 4.24805C14.0991 4.24805 12.2437 6.11817 12.2437 8.41309C12.2437 8.73535 12.2827 9.05762 12.3462 9.36768C8.8916 9.18701 5.81055 7.53662 3.76221 5.00977C3.38898 5.64726 3.19339 6.37311 3.1958 7.11182C3.1958 8.55713 3.93066 9.83155 5.05127 10.5811C4.39088 10.555 3.74595 10.3735 3.16895 10.0513V10.1025C3.16895 12.1265 4.59961 13.8037 6.50635 14.1895C6.14834 14.2824 5.78005 14.33 5.41016 14.3311C5.13916 14.3311 4.88281 14.3042 4.62402 14.2676C5.15137 15.918 6.68701 17.1167 8.51562 17.1558C7.08496 18.2764 5.29297 18.9355 3.34717 18.9355C2.99805 18.9355 2.67578 18.9233 2.34131 18.8843C4.18701 20.0684 6.37695 20.752 8.73535 20.752C16.3916 20.752 20.5811 14.4092 20.5811 8.90381C20.5811 8.72315 20.5811 8.54248 20.5688 8.36182C21.3794 7.76856 22.0898 7.03369 22.6562 6.2085Z" fill="white"/>
</svg>
